<?xml version="1.0" encoding="utf-8"?>
<!-- Generator: Adobe Illustrator 24.0.2, SVG Export Plug-In . SVG Version: 6.00 Build 0)  -->
<svg version="1.1" id="Capa_1" xmlns="http://www.w3.org/2000/svg" xmlns:xlink="http://www.w3.org/1999/xlink" x="0px" y="0px"
	 viewBox="0 0 703.66 729.22" style="enable-background:new 0 0 703.66 729.22;" xml:space="preserve">
<style type="text/css">
	.st0{fill:none;stroke:#050006;stroke-width:9;stroke-miterlimit:10;}
</style>
<path class="st0" d="M224.02,503.14c0,0-89.2,60.99-177.36,46.05c0,0,466.18,226.59,547.73-290.83c0,0,49.93-31.73,63.2-64.22
	l-63.2,11.03c0,0,48.93-38.69,50.97-65.28c0,0-81.55,48.36-83.59,29.01c0,0-69.32-60.45-134.55-29.01c0,0-104.49,31.43-75.69,142.65
	c0,0-162.84-9.67-264.77-128.15c0,0-57.08,79.79,36.7,159.58l-55.04-16.92c0,0,8.15,87.04,101.93,118.47l-59.12-4.84
	C111.22,410.68,145.19,498.88,224.02,503.14z"/>
</svg>
