<?xml version="1.0" encoding="utf-8"?>
<!-- Generator: Adobe Illustrator 24.0.2, SVG Export Plug-In . SVG Version: 6.00 Build 0)  -->
<svg version="1.1" id="Capa_1" xmlns="http://www.w3.org/2000/svg" xmlns:xlink="http://www.w3.org/1999/xlink" x="0px" y="0px"
	 viewBox="0 0 703.66 729.22" style="enable-background:new 0 0 703.66 729.22;" xml:space="preserve">
<style type="text/css">
	.st0{fill:none;stroke:#050006;stroke-width:9;stroke-miterlimit:10;}
	.st1{fill:#050006;}
</style>
<path class="st0" d="M624.35,692.63H87.63c-35.72,0-64.67-28.95-64.67-64.67V84.12c0-35.72,28.95-64.67,64.67-64.67h536.72
	c35.72,0,64.67,28.95,64.67,64.67v543.84C689.02,663.68,660.07,692.63,624.35,692.63z"/>
<path class="st1" d="M384.89,683.01V457.23c0-5.31-4.31-9.62-9.62-9.62h-41.66c-5.31,0-9.62-4.31-9.62-9.62v-72.33
	c0-5.31,4.31-9.62,9.62-9.62h40.89c5.54,0,9.93-4.65,9.6-10.18c-2.11-35.72-3.4-153.19,70.77-152.86l104.63-0.36
	c5.33-0.02,9.65,4.29,9.65,9.62v75.23c0,5.31-4.31,9.62-9.62,9.62H496.7c-5.26,0-9.55,4.23-9.62,9.49l-0.68,49.69
	c-0.07,5.37,4.25,9.75,9.62,9.75h63.51c5.31,0,9.62,4.31,9.62,9.62V433c0,5.31-4.31,9.62-9.62,9.62h-64.45
	c-5.27,0-9.56,4.24-9.62,9.51l-2.57,230.99c-0.06,5.27-4.35,9.51-9.62,9.51H394.5C389.2,692.63,384.89,688.33,384.89,683.01z"/>
</svg>
