<?xml version="1.0" encoding="utf-8"?>
<!-- Generator: Adobe Illustrator 24.0.2, SVG Export Plug-In . SVG Version: 6.00 Build 0)  -->
<svg version="1.1" id="Capa_1" xmlns="http://www.w3.org/2000/svg" xmlns:xlink="http://www.w3.org/1999/xlink" x="0px" y="0px"
	 viewBox="0 0 703.66 729.22" style="enable-background:new 0 0 703.66 729.22;" xml:space="preserve">
<style type="text/css">
	.st0{fill:none;stroke:#050006;stroke-width:9;stroke-miterlimit:10;}
	.st1{fill:#050006;}
</style>
<g>
	<path class="st0" d="M202.31,579.69"/>
	<path class="st0" d="M206.05,578.5"/>
	<path class="st0" d="M202.31,579.69"/>
	<path class="st0" d="M86.92,474.33"/>
	<g>
		<polyline class="st0" points="82.89,462.52 27.09,635.32 203.77,579.69 		"/>
		<path class="st0" d="M81.83,465.79c-16.57-28.88-35.25-72.46-33.51-124.8C52.9,202.72,197.94,63.66,361.96,63.66
			c173.22,0,313.65,124.17,313.65,277.33c0,164.77-175.64,271.98-313.65,277.33c-69.98,2.71-128.74-20.92-161.95-38.63"/>
	</g>
</g>
<path class="st1" d="M285.14,300.24c5.75-5.42,12.6-13.36,16.75-23.32l-33.93-77.38c0,0-33.93-20.98-55,0
	c0,0-67.87,51.15-9.36,135.08c0,0,51.49,114.5,170.84,147.09c0,0,7.45,4.58,66.7,13.97c0,0,73.72,23.86,102.98-66.64
	c0,0-91.27-61.64-100.63-32.79c0,0-26.91,35.41-33.93,31.47c0,0-84.02-13.11-128.36-105.25
	C277.57,314.99,279.32,305.72,285.14,300.24z"/>
</svg>
